<svg width="129" height="17" viewBox="0 0 129 17" fill="none" xmlns="http://www.w3.org/2000/svg">
<path d="M6.516 9.616C6.516 9.232 6.372 8.92 6.084 8.68C5.808 8.44 5.454 8.224 5.022 8.032C4.602 7.828 4.14 7.624 3.636 7.42C3.144 7.204 2.682 6.946 2.25 6.646C1.83 6.334 1.476 5.95 1.188 5.494C0.912 5.038 0.774 4.456 0.774 3.748C0.774 3.136 0.876 2.608 1.08 2.164C1.284 1.708 1.572 1.33 1.944 1.03C2.328 0.729999 2.778 0.507999 3.294 0.364C3.81 0.219999 4.386 0.147999 5.022 0.147999C5.754 0.147999 6.444 0.213999 7.092 0.346C7.74 0.466 8.274 0.646 8.694 0.885999L7.92 2.956C7.656 2.788 7.26 2.638 6.732 2.506C6.204 2.362 5.634 2.29 5.022 2.29C4.446 2.29 4.002 2.404 3.69 2.632C3.39 2.86 3.24 3.166 3.24 3.55C3.24 3.91 3.378 4.21 3.654 4.45C3.942 4.69 4.296 4.912 4.716 5.116C5.148 5.32 5.61 5.53 6.102 5.746C6.606 5.962 7.068 6.226 7.488 6.538C7.92 6.838 8.274 7.216 8.55 7.672C8.838 8.116 8.982 8.674 8.982 9.346C8.982 10.018 8.868 10.6 8.64 11.092C8.424 11.572 8.112 11.974 7.704 12.298C7.308 12.622 6.822 12.862 6.246 13.018C5.682 13.174 5.058 13.252 4.374 13.252C3.474 13.252 2.682 13.168 1.998 13C1.314 12.832 0.81 12.664 0.486 12.496L1.278 10.39C1.41 10.462 1.578 10.54 1.782 10.624C1.998 10.708 2.238 10.786 2.502 10.858C2.766 10.93 3.042 10.99 3.33 11.038C3.63 11.086 3.936 11.11 4.248 11.11C4.98 11.11 5.538 10.99 5.922 10.75C6.318 10.498 6.516 10.12 6.516 9.616ZM17.7709 12.226C17.4109 12.514 16.9189 12.76 16.2949 12.964C15.6829 13.156 15.0289 13.252 14.3329 13.252C12.8809 13.252 11.8189 12.832 11.1469 11.992C10.4749 11.14 10.1389 9.976 10.1389 8.5C10.1389 6.916 10.5169 5.728 11.2729 4.936C12.0289 4.144 13.0909 3.748 14.4589 3.748C14.9149 3.748 15.3589 3.808 15.7909 3.928C16.2229 4.048 16.6069 4.246 16.9429 4.522C17.2789 4.798 17.5489 5.17 17.7529 5.638C17.9569 6.106 18.0589 6.688 18.0589 7.384C18.0589 7.636 18.0409 7.906 18.0049 8.194C17.9809 8.482 17.9389 8.782 17.8789 9.094H12.4789C12.5149 9.85 12.7069 10.42 13.0549 10.804C13.4149 11.188 13.9909 11.38 14.7829 11.38C15.2749 11.38 15.7129 11.308 16.0969 11.164C16.4929 11.008 16.7929 10.852 16.9969 10.696L17.7709 12.226ZM14.4229 5.62C13.8109 5.62 13.3549 5.806 13.0549 6.178C12.7669 6.538 12.5929 7.024 12.5329 7.636H15.8809C15.9289 6.988 15.8269 6.49 15.5749 6.142C15.3349 5.794 14.9509 5.62 14.4229 5.62ZM27.2377 13C27.2377 14.308 26.8837 15.268 26.1757 15.88C25.4677 16.504 24.4777 16.816 23.2057 16.816C22.3417 16.816 21.6577 16.756 21.1537 16.636C20.6617 16.516 20.2897 16.39 20.0377 16.258L20.5237 14.404C20.7997 14.512 21.1177 14.62 21.4777 14.728C21.8497 14.836 22.3057 14.89 22.8457 14.89C23.6617 14.89 24.2137 14.71 24.5017 14.35C24.8017 14.002 24.9517 13.51 24.9517 12.874V12.298H24.8797C24.4597 12.862 23.7157 13.144 22.6477 13.144C21.4837 13.144 20.6137 12.784 20.0377 12.064C19.4737 11.344 19.1917 10.216 19.1917 8.68C19.1917 7.072 19.5757 5.854 20.3437 5.026C21.1117 4.198 22.2277 3.784 23.6917 3.784C24.4597 3.784 25.1437 3.838 25.7437 3.946C26.3557 4.054 26.8537 4.18 27.2377 4.324V13ZM23.2777 11.272C23.7337 11.272 24.0817 11.17 24.3217 10.966C24.5737 10.762 24.7657 10.456 24.8977 10.048V5.998C24.5257 5.842 24.0637 5.764 23.5117 5.764C22.9117 5.764 22.4437 5.992 22.1077 6.448C21.7717 6.892 21.6037 7.606 21.6037 8.59C21.6037 9.466 21.7477 10.132 22.0357 10.588C22.3237 11.044 22.7377 11.272 23.2777 11.272ZM34.386 13V8.104C34.386 7.276 34.308 6.688 34.152 6.34C33.996 5.992 33.672 5.818 33.18 5.818C32.772 5.818 32.442 5.932 32.19 6.16C31.938 6.376 31.746 6.658 31.614 7.006V13H29.274V4H31.092L31.362 5.188H31.434C31.71 4.804 32.058 4.468 32.478 4.18C32.91 3.892 33.462 3.748 34.134 3.748C34.71 3.748 35.178 3.868 35.538 4.108C35.91 4.336 36.198 4.726 36.402 5.278C36.678 4.81 37.032 4.438 37.464 4.162C37.896 3.886 38.418 3.748 39.03 3.748C39.534 3.748 39.96 3.808 40.308 3.928C40.668 4.048 40.956 4.258 41.172 4.558C41.4 4.846 41.568 5.236 41.676 5.728C41.784 6.22 41.838 6.844 41.838 7.6V13H39.498V7.942C39.498 7.234 39.42 6.706 39.264 6.358C39.12 5.998 38.79 5.818 38.274 5.818C37.854 5.818 37.518 5.932 37.266 6.16C37.026 6.388 36.846 6.7 36.726 7.096V13H34.386ZM50.9584 12.226C50.5984 12.514 50.1064 12.76 49.4824 12.964C48.8704 13.156 48.2164 13.252 47.5204 13.252C46.0684 13.252 45.0064 12.832 44.3344 11.992C43.6624 11.14 43.3264 9.976 43.3264 8.5C43.3264 6.916 43.7044 5.728 44.4604 4.936C45.2164 4.144 46.2784 3.748 47.6464 3.748C48.1024 3.748 48.5464 3.808 48.9784 3.928C49.4104 4.048 49.7944 4.246 50.1304 4.522C50.4664 4.798 50.7364 5.17 50.9404 5.638C51.1444 6.106 51.2464 6.688 51.2464 7.384C51.2464 7.636 51.2284 7.906 51.1924 8.194C51.1684 8.482 51.1264 8.782 51.0664 9.094H45.6664C45.7024 9.85 45.8944 10.42 46.2424 10.804C46.6024 11.188 47.1784 11.38 47.9704 11.38C48.4624 11.38 48.9004 11.308 49.2844 11.164C49.6804 11.008 49.9804 10.852 50.1844 10.696L50.9584 12.226ZM47.6104 5.62C46.9984 5.62 46.5424 5.806 46.2424 6.178C45.9544 6.538 45.7804 7.024 45.7204 7.636H49.0684C49.1164 6.988 49.0144 6.49 48.7624 6.142C48.5224 5.794 48.1384 5.62 47.6104 5.62ZM58.407 13V7.888C58.407 7.156 58.299 6.628 58.083 6.304C57.879 5.98 57.525 5.818 57.021 5.818C56.577 5.818 56.199 5.95 55.887 6.214C55.587 6.466 55.371 6.784 55.239 7.168V13H52.899V4H54.753L55.023 5.188H55.095C55.371 4.804 55.737 4.468 56.193 4.18C56.649 3.892 57.237 3.748 57.957 3.748C58.401 3.748 58.797 3.808 59.145 3.928C59.493 4.048 59.787 4.246 60.027 4.522C60.267 4.798 60.447 5.176 60.567 5.656C60.687 6.124 60.747 6.706 60.747 7.402V13H58.407ZM61.7716 4H63.0136V2.308L65.3536 1.642V4H67.5496V5.98H65.3536V9.436C65.3536 10.06 65.4136 10.51 65.5336 10.786C65.6656 11.05 65.9056 11.182 66.2536 11.182C66.4936 11.182 66.6976 11.158 66.8656 11.11C67.0456 11.062 67.2436 10.99 67.4596 10.894L67.8736 12.694C67.5496 12.85 67.1716 12.982 66.7396 13.09C66.3076 13.198 65.8696 13.252 65.4256 13.252C64.5976 13.252 63.9856 13.042 63.5896 12.622C63.2056 12.19 63.0136 11.488 63.0136 10.516V5.98H61.7716V4ZM72.709 10.516C72.709 10.276 72.607 10.084 72.403 9.94C72.199 9.796 71.947 9.664 71.647 9.544C71.347 9.424 71.017 9.304 70.657 9.184C70.297 9.052 69.967 8.878 69.667 8.662C69.367 8.434 69.115 8.152 68.911 7.816C68.707 7.468 68.605 7.024 68.605 6.484C68.605 5.596 68.869 4.918 69.397 4.45C69.925 3.982 70.687 3.748 71.683 3.748C72.367 3.748 72.985 3.82 73.537 3.964C74.089 4.108 74.521 4.27 74.833 4.45L74.311 6.142C74.035 6.034 73.687 5.92 73.267 5.8C72.847 5.68 72.421 5.62 71.989 5.62C71.293 5.62 70.945 5.89 70.945 6.43C70.945 6.646 71.047 6.82 71.251 6.952C71.455 7.084 71.707 7.21 72.007 7.33C72.307 7.438 72.637 7.558 72.997 7.69C73.357 7.822 73.687 7.996 73.987 8.212C74.287 8.416 74.539 8.686 74.743 9.022C74.947 9.358 75.049 9.79 75.049 10.318C75.049 11.23 74.755 11.95 74.167 12.478C73.591 12.994 72.721 13.252 71.557 13.252C70.921 13.252 70.321 13.168 69.757 13C69.205 12.844 68.755 12.658 68.407 12.442L69.055 10.696C69.331 10.852 69.697 11.008 70.153 11.164C70.609 11.308 71.077 11.38 71.557 11.38C71.905 11.38 72.181 11.314 72.385 11.182C72.601 11.05 72.709 10.828 72.709 10.516ZM81.5448 0.184L83.3088 0.975999L76.8828 15.52L75.1188 14.692L81.5448 0.184ZM92.9244 2.596H89.2524V13H86.7864V2.596H83.0964V0.399999H92.9244V2.596ZM97.2245 6.196C96.8525 6.064 96.5165 5.998 96.2165 5.998C95.7965 5.998 95.4425 6.112 95.1545 6.34C94.8785 6.556 94.6925 6.838 94.5965 7.186V13H92.2565V4H94.0745L94.3445 5.188H94.4165C94.6205 4.744 94.8965 4.402 95.2445 4.162C95.5925 3.922 96.0005 3.802 96.4685 3.802C96.7805 3.802 97.1345 3.868 97.5305 4L97.2245 6.196ZM98.765 4H101.105V13H98.765V4ZM98.423 1.462C98.423 1.114 98.549 0.819999 98.801 0.579999C99.065 0.327999 99.425 0.202 99.881 0.202C100.337 0.202 100.703 0.327999 100.979 0.579999C101.267 0.819999 101.411 1.114 101.411 1.462C101.411 1.81 101.267 2.104 100.979 2.344C100.703 2.572 100.337 2.686 99.881 2.686C99.425 2.686 99.065 2.572 98.801 2.344C98.549 2.104 98.423 1.81 98.423 1.462ZM103.401 0.399999H105.741V4.72H105.813C106.065 4.432 106.389 4.204 106.785 4.036C107.181 3.868 107.619 3.784 108.099 3.784C109.179 3.784 110.001 4.156 110.565 4.9C111.141 5.632 111.429 6.754 111.429 8.266C111.429 9.886 111.027 11.116 110.223 11.956C109.431 12.796 108.339 13.216 106.947 13.216C106.179 13.216 105.477 13.15 104.841 13.018C104.205 12.898 103.725 12.76 103.401 12.604V0.399999ZM107.415 5.764C106.983 5.764 106.629 5.878 106.353 6.106C106.089 6.322 105.885 6.64 105.741 7.06V10.984C105.933 11.08 106.137 11.146 106.353 11.182C106.581 11.218 106.821 11.236 107.073 11.236C107.709 11.236 108.189 11.008 108.513 10.552C108.849 10.084 109.017 9.346 109.017 8.338C109.017 6.622 108.483 5.764 107.415 5.764ZM120.251 12.226C119.891 12.514 119.399 12.76 118.775 12.964C118.163 13.156 117.509 13.252 116.813 13.252C115.361 13.252 114.299 12.832 113.627 11.992C112.955 11.14 112.619 9.976 112.619 8.5C112.619 6.916 112.997 5.728 113.753 4.936C114.509 4.144 115.571 3.748 116.939 3.748C117.395 3.748 117.839 3.808 118.271 3.928C118.703 4.048 119.087 4.246 119.423 4.522C119.759 4.798 120.029 5.17 120.233 5.638C120.437 6.106 120.539 6.688 120.539 7.384C120.539 7.636 120.521 7.906 120.485 8.194C120.461 8.482 120.419 8.782 120.359 9.094H114.959C114.995 9.85 115.187 10.42 115.535 10.804C115.895 11.188 116.471 11.38 117.263 11.38C117.755 11.38 118.193 11.308 118.577 11.164C118.973 11.008 119.273 10.852 119.477 10.696L120.251 12.226ZM116.903 5.62C116.291 5.62 115.835 5.806 115.535 6.178C115.247 6.538 115.073 7.024 115.013 7.636H118.361C118.409 6.988 118.307 6.49 118.055 6.142C117.815 5.794 117.431 5.62 116.903 5.62ZM125.918 10.516C125.918 10.276 125.816 10.084 125.612 9.94C125.408 9.796 125.156 9.664 124.856 9.544C124.556 9.424 124.226 9.304 123.866 9.184C123.506 9.052 123.176 8.878 122.876 8.662C122.576 8.434 122.324 8.152 122.12 7.816C121.916 7.468 121.814 7.024 121.814 6.484C121.814 5.596 122.078 4.918 122.606 4.45C123.134 3.982 123.896 3.748 124.892 3.748C125.576 3.748 126.194 3.82 126.746 3.964C127.298 4.108 127.73 4.27 128.042 4.45L127.52 6.142C127.244 6.034 126.896 5.92 126.476 5.8C126.056 5.68 125.63 5.62 125.198 5.62C124.502 5.62 124.154 5.89 124.154 6.43C124.154 6.646 124.256 6.82 124.46 6.952C124.664 7.084 124.916 7.21 125.216 7.33C125.516 7.438 125.846 7.558 126.206 7.69C126.566 7.822 126.896 7.996 127.196 8.212C127.496 8.416 127.748 8.686 127.952 9.022C128.156 9.358 128.258 9.79 128.258 10.318C128.258 11.23 127.964 11.95 127.376 12.478C126.8 12.994 125.93 13.252 124.766 13.252C124.13 13.252 123.53 13.168 122.966 13C122.414 12.844 121.964 12.658 121.616 12.442L122.264 10.696C122.54 10.852 122.906 11.008 123.362 11.164C123.818 11.308 124.286 11.38 124.766 11.38C125.114 11.38 125.39 11.314 125.594 11.182C125.81 11.05 125.918 10.828 125.918 10.516Z" fill="#2784C6"/>
</svg>
