<svg width="75" height="64" viewBox="0 0 75 64" fill="none" xmlns="http://www.w3.org/2000/svg">
<path d="M73.028 20.2331L72.834 20.0391C71.7614 18.9738 70.311 18.3758 68.7992 18.3758C67.2874 18.3758 65.837 18.9738 64.7644 20.0391L57.3074 27.4962H35.4257L27.9686 20.0391C26.896 18.9738 25.4456 18.3758 23.9338 18.3758C22.422 18.3758 20.9716 18.9738 19.899 20.0391L19.7028 20.2354C18.6378 21.3077 18.0402 22.7577 18.0402 24.269C18.0402 25.7803 18.6378 27.2303 19.7028 28.3027L33.8127 42.4102V62.8592C33.8127 63.1617 33.9328 63.4519 34.1468 63.6658C34.3607 63.8797 34.6509 63.9999 34.9534 63.9999H57.7682C58.0708 63.9999 58.3609 63.8797 58.5749 63.6658C58.7888 63.4519 58.909 63.1617 58.909 62.8592V42.4216L73.028 28.3027C74.0942 27.2305 74.6927 25.7799 74.6927 24.2679C74.6927 22.7558 74.0942 21.3052 73.028 20.2331Z" fill="#B5E0FF"/>
<path d="M46.3608 25.2148C51.4009 25.2148 55.4867 21.1289 55.4867 16.0888C55.4867 11.0487 51.4009 6.96289 46.3608 6.96289C41.3207 6.96289 37.2349 11.0487 37.2349 16.0888C37.2349 21.1289 41.3207 25.2148 46.3608 25.2148Z" fill="#B5E0FF"/>
<path d="M49.3858 0H3.15229C2.31625 0 1.51445 0.331822 0.923283 0.922469C0.332115 1.51312 0 2.31421 0 3.14951V39.8937C0 40.729 0.332115 41.5301 0.923283 42.1208C1.51445 42.7114 2.31625 43.0432 3.15229 43.0432H49.3858C50.2218 43.0432 51.0236 42.7114 51.6148 42.1208C52.206 41.5301 52.5381 40.729 52.5381 39.8937V3.14951C52.5381 2.31421 52.206 1.51312 51.6148 0.922469C51.0236 0.331822 50.2218 0 49.3858 0ZM2.10152 39.8937V3.14951C2.10152 2.87107 2.21223 2.60404 2.40928 2.40716C2.60634 2.21028 2.87361 2.09967 3.15229 2.09967H12.6091V40.9436H3.15229C2.87361 40.9436 2.60634 40.833 2.40928 40.6361C2.21223 40.4392 2.10152 40.1722 2.10152 39.8937ZM50.4366 39.8937C50.4366 40.1722 50.3259 40.4392 50.1288 40.6361C49.9317 40.833 49.6645 40.9436 49.3858 40.9436H14.7107V2.09967H49.3858C49.6645 2.09967 49.9317 2.21028 50.1288 2.40716C50.3259 2.60404 50.4366 2.87107 50.4366 3.14951V39.8937ZM4.20305 7.34885C4.20305 7.07041 4.31375 6.80338 4.51081 6.6065C4.70786 6.40962 4.97513 6.29901 5.25381 6.29901H9.45686C9.73553 6.29901 10.0028 6.40962 10.1999 6.6065C10.3969 6.80338 10.5076 7.07041 10.5076 7.34885C10.5076 7.62728 10.3969 7.89431 10.1999 8.09119C10.0028 8.28808 9.73553 8.39868 9.45686 8.39868H5.25381C4.97513 8.39868 4.70786 8.28808 4.51081 8.09119C4.31375 7.89431 4.20305 7.62728 4.20305 7.34885ZM10.5076 13.6479C10.5076 13.9263 10.3969 14.1933 10.1999 14.3902C10.0028 14.5871 9.73553 14.6977 9.45686 14.6977H5.25381C4.97513 14.6977 4.70786 14.5871 4.51081 14.3902C4.31375 14.1933 4.20305 13.9263 4.20305 13.6479C4.20305 13.3694 4.31375 13.1024 4.51081 12.9055C4.70786 12.7086 4.97513 12.598 5.25381 12.598H9.45686C9.73553 12.598 10.0028 12.7086 10.1999 12.9055C10.3969 13.1024 10.5076 13.3694 10.5076 13.6479ZM10.5076 19.9469C10.5076 20.2253 10.3969 20.4923 10.1999 20.6892C10.0028 20.8861 9.73553 20.9967 9.45686 20.9967H5.25381C4.97513 20.9967 4.70786 20.8861 4.51081 20.6892C4.31375 20.4923 4.20305 20.2253 4.20305 19.9469C4.20305 19.6684 4.31375 19.4014 4.51081 19.2045C4.70786 19.0076 4.97513 18.897 5.25381 18.897H9.45686C9.73553 18.897 10.0028 19.0076 10.1999 19.2045C10.3969 19.4014 10.5076 19.6684 10.5076 19.9469ZM10.5076 26.2459C10.5076 26.5243 10.3969 26.7913 10.1999 26.9882C10.0028 27.1851 9.73553 27.2957 9.45686 27.2957H5.25381C4.97513 27.2957 4.70786 27.1851 4.51081 26.9882C4.31375 26.7913 4.20305 26.5243 4.20305 26.2459C4.20305 25.9674 4.31375 25.7004 4.51081 25.5035C4.70786 25.3067 4.97513 25.196 5.25381 25.196H9.45686C9.73553 25.196 10.0028 25.3067 10.1999 25.5035C10.3969 25.7004 10.5076 25.9674 10.5076 26.2459ZM45.1828 6.29901H19.9645C19.6858 6.29901 19.4185 6.40962 19.2215 6.6065C19.0244 6.80338 18.9137 7.07041 18.9137 7.34885V25.196C18.9137 25.4745 19.0244 25.7415 19.2215 25.9384C19.4185 26.1353 19.6858 26.2459 19.9645 26.2459H45.1828C45.4614 26.2459 45.7287 26.1353 45.9258 25.9384C46.1228 25.7415 46.2335 25.4745 46.2335 25.196V7.34885C46.2335 7.07041 46.1228 6.80338 45.9258 6.6065C45.7287 6.40962 45.4614 6.29901 45.1828 6.29901ZM21.0152 8.39868H37.8274V24.1462H21.0152V8.39868ZM44.132 24.1462H39.9289V8.39868H44.132V24.1462ZM26.269 28.3456H19.9645C19.6858 28.3456 19.4185 28.4562 19.2215 28.653C19.0244 28.8499 18.9137 29.117 18.9137 29.3954V35.6944C18.9137 35.9728 19.0244 36.2399 19.2215 36.4367C19.4185 36.6336 19.6858 36.7442 19.9645 36.7442H26.269C26.5477 36.7442 26.815 36.6336 27.012 36.4367C27.2091 36.2399 27.3198 35.9728 27.3198 35.6944V29.3954C27.3198 29.117 27.2091 28.8499 27.012 28.653C26.815 28.4562 26.5477 28.3456 26.269 28.3456ZM25.2183 34.6446H21.0152V30.4452H25.2183V34.6446ZM36.7767 28.3456H30.4721C30.1934 28.3456 29.9261 28.4562 29.7291 28.653C29.532 28.8499 29.4213 29.117 29.4213 29.3954V35.6944C29.4213 35.9728 29.532 36.2399 29.7291 36.4367C29.9261 36.6336 30.1934 36.7442 30.4721 36.7442H36.7767C37.0553 36.7442 37.3226 36.6336 37.5197 36.4367C37.7167 36.2399 37.8274 35.9728 37.8274 35.6944V29.3954C37.8274 29.117 37.7167 28.8499 37.5197 28.653C37.3226 28.4562 37.0553 28.3456 36.7767 28.3456ZM35.7259 34.6446H31.5229V30.4452H35.7259V34.6446ZM45.1828 28.3456H40.9797C40.701 28.3456 40.4338 28.4562 40.2367 28.653C40.0396 28.8499 39.9289 29.117 39.9289 29.3954V35.6944C39.9289 35.9728 40.0396 36.2399 40.2367 36.4367C40.4338 36.6336 40.701 36.7442 40.9797 36.7442H45.1828C45.4614 36.7442 45.7287 36.6336 45.9258 36.4367C46.1228 36.2399 46.2335 35.9728 46.2335 35.6944V29.3954C46.2335 29.117 46.1228 28.8499 45.9258 28.653C45.7287 28.4562 45.4614 28.3456 45.1828 28.3456ZM44.132 34.6446H42.0305V30.4452H44.132V34.6446Z" fill="#044472" fill-opacity="0.96"/>
</svg>
