<svg width="65" height="64" viewBox="0 0 65 64" fill="none" xmlns="http://www.w3.org/2000/svg">
<path d="M20.5023 63.9999H13.9738C13.6773 63.9999 13.3929 63.8822 13.1833 63.6725C12.9736 63.4629 12.8559 63.1785 12.8559 62.882V45.5545C12.8559 45.2581 12.9736 44.9737 13.1833 44.7641C13.3929 44.5544 13.6773 44.4366 13.9738 44.4366H20.5023C20.7988 44.4366 21.0831 44.5544 21.2928 44.7641C21.5024 44.9737 21.6202 45.2581 21.6202 45.5545V62.882C21.6202 63.1785 21.5024 63.4629 21.2928 63.6725C21.0831 63.8822 20.7988 63.9999 20.5023 63.9999Z" fill="#B5E0FF"/>
<path d="M32.1486 64H25.6257C25.3292 64 25.0449 63.8823 24.8352 63.6726C24.6256 63.463 24.5078 63.1786 24.5078 62.8821V41.0831C24.5078 40.7866 24.6256 40.5022 24.8352 40.2926C25.0449 40.0829 25.3292 39.9651 25.6257 39.9651H32.1531C32.4496 39.9651 32.7339 40.0829 32.9436 40.2926C33.1532 40.5022 33.271 40.7866 33.271 41.0831V62.8821C33.271 63.0293 33.242 63.1751 33.1855 63.311C33.129 63.4469 33.0463 63.5703 32.942 63.6742C32.8377 63.7781 32.714 63.8603 32.5778 63.9162C32.4417 63.9721 32.2958 64.0006 32.1486 64Z" fill="#B5E0FF"/>
<path d="M43.795 64H37.2675C36.971 64 36.6867 63.8822 36.4771 63.6726C36.2674 63.4629 36.1496 63.1786 36.1496 62.8821V35.4935C36.1496 35.197 36.2674 34.9127 36.4771 34.703C36.6867 34.4934 36.971 34.3756 37.2675 34.3756H43.795C44.0914 34.3756 44.3758 34.4934 44.5854 34.703C44.7951 34.9127 44.9129 35.197 44.9129 35.4935V62.8821C44.9129 63.1786 44.7951 63.4629 44.5854 63.6726C44.3758 63.8822 44.0914 64 43.795 64Z" fill="#B5E0FF"/>
<path d="M55.4423 64H48.9138C48.6173 64 48.333 63.8822 48.1233 63.6726C47.9137 63.4629 47.7959 63.1786 47.7959 62.8821V31.0219H41.3489C41.1339 31.0218 40.9234 30.9597 40.7428 30.843C40.5622 30.7263 40.419 30.56 40.3305 30.364C40.242 30.1681 40.2119 29.9507 40.2439 29.738C40.2758 29.5254 40.3684 29.3264 40.5105 29.1651L51.3385 16.8681C51.4426 16.75 51.5705 16.6551 51.7137 16.5898C51.857 16.5245 52.0125 16.4902 52.17 16.4891C52.3274 16.488 52.4834 16.5203 52.6275 16.5837C52.7716 16.6471 52.9008 16.7402 53.0064 16.857L64.1273 29.1539C64.2725 29.3143 64.368 29.5133 64.4022 29.7269C64.4365 29.9405 64.4081 30.1594 64.3204 30.3572C64.2327 30.5549 64.0895 30.723 63.9082 30.841C63.7269 30.9589 63.5153 31.0218 63.299 31.0219H56.5602V62.8821C56.5602 63.1786 56.4425 63.4629 56.2328 63.6726C56.0232 63.8822 55.7388 64 55.4423 64Z" fill="#B5E0FF"/>
<path d="M17.9792 15.6768V12.36C18.5346 12.5088 19.0551 12.766 19.5107 13.1168C19.6959 13.2453 19.9225 13.2999 20.1458 13.2699C20.3692 13.2399 20.5733 13.1275 20.7181 12.9547C20.8315 12.8383 20.9172 12.6977 20.9687 12.5435C21.0202 12.3892 21.0362 12.2254 21.0154 12.0641C20.9947 11.9029 20.9378 11.7484 20.8489 11.6122C20.7601 11.4761 20.6416 11.3618 20.5023 11.2778C19.7722 10.6931 18.9028 10.3079 17.9792 10.1599V9.4892C17.9866 9.34597 17.9644 9.20275 17.9141 9.06846C17.8637 8.93417 17.7863 8.81167 17.6866 8.70859C17.5869 8.60552 17.467 8.52406 17.3344 8.46931C17.2019 8.41455 17.0595 8.38765 16.9161 8.3903C16.7708 8.38678 16.6262 8.41279 16.4913 8.46676C16.3563 8.52072 16.2337 8.60152 16.1308 8.70425C16.028 8.80699 15.9471 8.92953 15.893 9.06445C15.8389 9.19937 15.8127 9.34387 15.8161 9.4892V10.1108C13.6216 10.4137 12.1952 11.706 12.1952 13.7238C12.1952 15.9115 13.6485 16.9367 15.8161 17.3358V20.8639C15.009 20.72 14.2594 20.3502 13.6541 19.7974C13.4561 19.6414 13.2068 19.5655 12.9555 19.5845C12.7041 19.6035 12.4691 19.7162 12.2969 19.9002C12.1892 20.0191 12.108 20.1596 12.0588 20.3122C12.0095 20.4649 11.9932 20.6263 12.0111 20.7857C12.029 20.9452 12.0805 21.099 12.1624 21.2369C12.2442 21.3749 12.3545 21.4939 12.4858 21.586C13.4064 22.4119 14.584 22.8945 15.8194 22.9521V23.9828C15.8157 24.1272 15.8411 24.2708 15.8939 24.4052C15.9467 24.5396 16.0259 24.6621 16.1269 24.7653C16.2238 24.8681 16.3413 24.9492 16.4717 25.0035C16.6021 25.0579 16.7425 25.0841 16.8837 25.0806C17.0288 25.0836 17.1731 25.0573 17.3078 25.0031C17.4425 24.949 17.5648 24.8682 17.6675 24.7655C17.7702 24.6628 17.851 24.5405 17.9051 24.4058C17.9593 24.2711 17.9856 24.1268 17.9826 23.9817V22.8638C18.8789 22.7583 19.7078 22.3354 20.3193 21.6716C20.9308 21.0078 21.2844 20.1471 21.3162 19.2451C21.3128 17.0026 20.1345 16.2033 17.9792 15.6768ZM15.8161 15.1737C14.9609 14.911 14.3203 14.5376 14.3203 13.6422C14.3203 12.8082 14.9911 12.3723 15.8161 12.2023V15.1737ZM17.9792 20.6984V17.8824C18.6768 18.1909 19.1508 18.5956 19.1508 19.3692C19.1508 20.0265 18.5862 20.4513 17.9792 20.695V20.6984Z" fill="#044472" fill-opacity="0.96"/>
<path d="M16.6568 4.62857C14.2731 4.62813 11.9428 5.33454 9.96059 6.65847C7.97839 7.98241 6.43329 9.8644 5.52069 12.0665C4.60809 14.2685 4.36897 16.6918 4.83356 19.0297C5.29816 21.3677 6.44562 23.5154 8.13082 25.2012C9.81602 26.887 11.9633 28.0353 14.3011 28.5008C16.6389 28.9662 19.0622 28.728 21.2646 27.8162C23.467 26.9044 25.3496 25.36 26.6742 23.3783C27.9989 21.3966 28.7062 19.0666 28.7066 16.6829C28.7034 13.4877 27.4329 10.4242 25.174 8.16438C22.915 5.90458 19.852 4.63301 16.6568 4.62857ZM16.6568 26.497C14.7151 26.4974 12.8169 25.922 11.2023 24.8436C9.58765 23.7651 8.32912 22.232 7.58588 20.4382C6.84263 18.6445 6.64804 16.6705 7.02674 14.7662C7.40543 12.8618 8.34038 11.1125 9.71335 9.7395C11.0863 8.36653 12.8356 7.43158 14.74 7.05288C16.6444 6.67419 18.6183 6.86877 20.4121 7.61202C22.2059 8.35527 23.739 9.6138 24.8174 11.2284C25.8959 12.843 26.4713 14.7412 26.4708 16.6829C26.4673 19.2847 25.4322 21.7789 23.5924 23.6186C21.7527 25.4583 19.2585 26.4934 16.6568 26.497Z" fill="#044472" fill-opacity="0.96"/>
<path d="M30.6719 34.1322H24.8051C23.4649 34.1329 22.1411 34.4269 20.9266 34.9935C19.7121 35.5601 18.6363 36.3856 17.7747 37.4122V33.2759C22.0857 32.9859 26.1154 31.0321 29.013 27.8268C31.9105 24.6216 33.4492 20.4158 33.3041 16.0975C33.159 11.7791 31.3416 7.68609 28.2354 4.68255C25.1293 1.67901 20.9776 0 16.6568 0C12.3359 0 8.18421 1.67901 5.07808 4.68255C1.97194 7.68609 0.154476 11.7791 0.00940119 16.0975C-0.135674 20.4158 1.40299 24.6216 4.30054 27.8268C7.1981 31.0321 11.2278 32.9859 15.5388 33.2759V37.2076C14.6789 36.2408 13.6242 35.4668 12.4439 34.9366C11.2636 34.4064 9.98449 34.1319 8.69058 34.1311H2.82159C2.52511 34.1311 2.24077 34.2489 2.03112 34.4585C1.82147 34.6682 1.70369 34.9525 1.70369 35.249C1.70665 37.6888 2.67715 40.0278 4.40233 41.753C6.12751 43.4781 8.4665 44.4486 10.9063 44.4516H15.5388V47.2016H12.26C10.6894 47.204 9.18375 47.829 8.07313 48.9396C6.96251 50.0502 6.33753 51.5559 6.33516 53.1265C6.33516 53.423 6.45294 53.7073 6.66259 53.917C6.87223 54.1266 7.15658 54.2444 7.45306 54.2444H25.8593C26.1558 54.2444 26.4402 54.1266 26.6498 53.917C26.8594 53.7073 26.9772 53.423 26.9772 53.1265C26.9746 51.556 26.3495 50.0505 25.2389 48.9399C24.1284 47.8294 22.6229 47.2043 21.0523 47.2016H17.7747V44.4527H22.5816C25.0214 44.4498 27.3604 43.4793 29.0856 41.7541C30.8107 40.0289 31.7812 37.6899 31.7842 35.2501C31.7842 34.9546 31.6672 34.6711 31.4588 34.4616C31.2503 34.2521 30.9674 34.1337 30.6719 34.1322ZM10.9063 42.2158C9.2521 42.2146 7.65215 41.6258 6.39172 40.5546C5.13129 39.4834 4.29233 37.9993 4.02446 36.3669H8.68834C10.3212 36.3694 11.9014 36.9449 13.1533 37.9932C14.4053 39.0414 15.2495 40.4959 15.5388 42.1029V42.2147L10.9063 42.2158ZM21.049 49.4374C21.8322 49.4382 22.595 49.6876 23.2274 50.1497C23.8599 50.6118 24.3293 51.2627 24.5681 52.0086H8.74089C8.97987 51.2628 9.44935 50.612 10.0817 50.1499C10.7141 49.6879 11.4768 49.4384 12.26 49.4374H21.049ZM16.6568 31.1038C13.8046 31.1038 11.0164 30.2581 8.64491 28.6735C6.2734 27.0889 4.42503 24.8366 3.33354 22.2016C2.24206 19.5665 1.95647 16.6669 2.51291 13.8695C3.06934 11.0721 4.4428 8.50257 6.45961 6.48576C8.47641 4.46896 11.046 3.0955 13.8434 2.53906C16.6408 1.98263 19.5403 2.26821 22.1754 3.3597C24.8105 4.45118 27.0627 6.29955 28.6473 8.67106C30.2319 11.0426 31.0777 13.8307 31.0777 16.6829C31.0738 20.5064 29.5533 24.1722 26.8496 26.8758C24.146 29.5794 20.4802 31.1 16.6568 31.1038ZM22.5816 42.2169H17.9278C18.1956 40.5853 19.0339 39.1018 20.2934 38.0307C21.5529 36.9595 23.1517 36.3703 24.8051 36.368H29.4646C29.1969 38.0007 28.3578 39.485 27.0971 40.5564C25.8364 41.6277 24.236 42.2162 22.5816 42.2169Z" fill="#044472" fill-opacity="0.96"/>
</svg>
