<svg width="59" height="64" viewBox="0 0 59 64" fill="none" xmlns="http://www.w3.org/2000/svg">
<path d="M29.8229 9.89371V30.9289C29.3936 31.0208 28.9764 31.1611 28.5795 31.3472L16.2072 14.2607C20.2681 11.6239 24.9707 10.1156 29.8229 9.89371ZM3.71057 36.9566C3.68085 42.1909 5.19315 47.3204 8.06264 51.7181L25.3963 39.4168C24.8929 38.3202 24.7317 37.1 24.9333 35.9123C25.1349 34.7246 25.6901 33.6234 26.5278 32.7495L14.9638 16.7578C14.8646 16.6187 14.7374 16.5014 14.59 16.4134C14.4427 16.3255 14.2785 16.2687 14.1079 16.2467C13.9373 16.2248 13.7639 16.2381 13.5987 16.2858C13.4335 16.3336 13.2802 16.4147 13.1483 16.5241C10.188 19.0627 7.81343 22.2007 6.18519 25.7258C4.55694 29.2509 3.71304 33.0809 3.71057 36.9566ZM9.5672 53.6617C11.8914 56.5868 14.8004 59.0064 18.1123 60.7693C21.4243 62.5322 25.0681 63.6006 28.8162 63.9077C32.5643 64.2147 36.3362 63.7539 39.8961 62.554C43.4561 61.3541 46.7278 59.4409 49.5067 56.9339L34.4859 42.0862C33.3276 42.849 31.9422 43.2011 30.5556 43.0849C29.1691 42.9688 27.8632 42.3912 26.8511 41.4465L9.5672 53.6617ZM51.26 55.1994C54.7722 51.4024 57.1172 46.6934 58.0199 41.6246C58.9225 36.5558 58.3454 31.3374 56.3562 26.5816C54.367 21.8258 51.0482 17.7298 46.7891 14.774C42.5299 11.8183 37.5071 10.1253 32.3098 9.89371V30.9289C33.3052 31.1309 34.2353 31.5711 35.0188 32.211C35.8024 32.8509 36.4154 33.671 36.8044 34.5996C37.1933 35.5282 37.3463 36.5369 37.25 37.5376C37.1536 38.5382 36.8108 39.5002 36.2516 40.3394L51.26 55.1994Z" fill="#B5E0FF"/>
<path d="M21.3826 10.705C20.7887 10.5696 20.2588 10.2359 19.8799 9.75903C19.5011 9.28213 19.2959 8.69041 19.2983 8.08134C19.2983 7.84329 19.2038 7.61498 19.0354 7.44665C18.8671 7.27831 18.6388 7.18375 18.4007 7.18375C18.1627 7.18375 17.9344 7.27831 17.766 7.44665C17.5977 7.61498 17.5031 7.84329 17.5031 8.08134C17.4991 9.0969 17.8413 10.0835 18.4733 10.8785C19.1052 11.6735 19.9892 12.2293 20.9795 12.4544C21.2115 12.5079 21.4552 12.467 21.6571 12.3407C21.8589 12.2145 22.0023 12.0132 22.0558 11.7812C22.1092 11.5493 22.0683 11.3055 21.9421 11.1037C21.8158 10.9019 21.6146 10.7585 21.3826 10.705Z" fill="#044472" fill-opacity="0.96"/>
<path d="M22.632 5.46569C23.2182 5.6077 23.7395 5.94301 24.1117 6.41754C24.484 6.89208 24.6856 7.47817 24.6839 8.08129C24.6839 8.31935 24.7785 8.54766 24.9468 8.71599C25.1152 8.88432 25.3435 8.97889 25.5815 8.97889C25.8196 8.97889 26.0479 8.88432 26.2162 8.71599C26.3846 8.54766 26.4791 8.31935 26.4791 8.08129C26.4815 7.07586 26.1453 6.09891 25.5245 5.30798C24.9038 4.51705 24.0347 3.95825 23.0575 3.72166C22.9428 3.69315 22.8236 3.68758 22.7067 3.70526C22.5898 3.72295 22.4776 3.76354 22.3765 3.82471C22.2753 3.88588 22.1873 3.96643 22.1173 4.06173C22.0474 4.15702 21.997 4.26519 21.969 4.38002C21.9409 4.49486 21.9359 4.61409 21.9541 4.73089C21.9723 4.84768 22.0133 4.95973 22.075 5.06061C22.1366 5.16148 22.2175 5.2492 22.3131 5.31871C22.4087 5.38823 22.5171 5.43818 22.632 5.46569Z" fill="#044472" fill-opacity="0.96"/>
<path d="M38.1479 31.4862V23.3405C38.1479 23.1024 38.0533 22.8741 37.885 22.7058C37.7167 22.5374 37.4884 22.4429 37.2503 22.4429H22.8888V16.1067C24.9407 15.8773 26.8269 14.8709 28.16 13.2943C29.4931 11.7176 30.1719 9.69039 30.057 7.62888C29.9421 5.56738 29.0423 3.6281 27.5422 2.20933C26.0422 0.790565 24.0559 0 21.9912 0C19.9264 0 17.9401 0.790565 16.4401 2.20933C14.94 3.6281 14.0402 5.56738 13.9253 7.62888C13.8104 9.69039 14.4892 11.7176 15.8223 13.2943C17.1554 14.8709 19.0416 15.8773 21.0936 16.1067V22.4429H6.73199C6.49393 22.4429 6.26563 22.5374 6.0973 22.7058C5.92896 22.8741 5.83439 23.1024 5.83439 23.3405V31.4862C4.14207 31.7139 2.59951 32.5761 1.51904 33.8984C0.438577 35.2207 -0.0990386 36.9041 0.0150543 38.6079C0.129147 40.3116 0.886422 41.9083 2.13354 43.0747C3.38066 44.2411 5.02442 44.89 6.73199 44.89C8.43956 44.89 10.0833 44.2411 11.3304 43.0747C12.5776 41.9083 13.3348 40.3116 13.4489 38.6079C13.563 36.9041 13.0254 35.2207 11.9449 33.8984C10.8645 32.5761 9.32191 31.7139 7.62959 31.4862V24.2381H21.0936V31.4862C19.4012 31.7139 17.8587 32.5761 16.7782 33.8984C15.6977 35.2207 15.1601 36.9041 15.2742 38.6079C15.3883 40.3116 16.1456 41.9083 17.3927 43.0747C18.6398 44.2411 20.2836 44.89 21.9912 44.89C23.6987 44.89 25.3425 44.2411 26.5896 43.0747C27.8367 41.9083 28.594 40.3116 28.7081 38.6079C28.8222 36.9041 28.2846 35.2207 27.2041 33.8984C26.1236 32.5761 24.5811 31.7139 22.8888 31.4862V24.2381H36.3527V31.4862C34.6604 31.7139 33.1178 32.5761 32.0374 33.8984C30.9569 35.2207 30.4193 36.9041 30.5334 38.6079C30.6475 40.3116 31.4047 41.9083 32.6519 43.0747C33.899 44.2411 35.5427 44.89 37.2503 44.89C38.9579 44.89 40.6016 44.2411 41.8488 43.0747C43.0959 41.9083 43.8532 40.3116 43.9672 38.6079C44.0813 36.9041 43.5437 35.2207 42.4633 33.8984C41.3828 32.5761 39.8402 31.7139 38.1479 31.4862ZM15.708 8.08132C15.708 6.83862 16.0765 5.62383 16.7669 4.59057C17.4573 3.5573 18.4386 2.75197 19.5867 2.27641C20.7348 1.80085 21.9981 1.67642 23.2169 1.91886C24.4358 2.1613 25.5553 2.75972 26.434 3.63843C27.3128 4.51715 27.9112 5.63671 28.1536 6.85553C28.396 8.07435 28.2716 9.33768 27.7961 10.4858C27.3205 11.6339 26.5152 12.6152 25.4819 13.3056C24.4486 13.996 23.2338 14.3645 21.9912 14.3645C20.3253 14.3626 18.7283 13.7 17.5504 12.5221C16.3725 11.3442 15.7099 9.74714 15.708 8.08132ZM11.6688 38.1508C11.6688 39.1272 11.3792 40.0817 10.8368 40.8936C10.2943 41.7054 9.5233 42.3382 8.62122 42.7118C7.71914 43.0855 6.72652 43.1833 5.76887 42.9928C4.81123 42.8023 3.93158 42.3321 3.24116 41.6417C2.55074 40.9512 2.08055 40.0716 1.89006 39.114C1.69958 38.1563 1.79734 37.1637 2.171 36.2616C2.54465 35.3595 3.17741 34.5885 3.98926 34.046C4.80111 33.5036 5.75559 33.2141 6.73199 33.2141C8.04087 33.2155 9.29573 33.7361 10.2213 34.6616C11.1468 35.5871 11.6674 36.842 11.6688 38.1508ZM26.9279 38.1508C26.9279 39.1272 26.6384 40.0817 26.0959 40.8936C25.5535 41.7054 24.7825 42.3382 23.8804 42.7118C22.9783 43.0855 21.9857 43.1833 21.028 42.9928C20.0704 42.8023 19.1907 42.3321 18.5003 41.6417C17.8099 40.9512 17.3397 40.0716 17.1492 39.114C16.9587 38.1563 17.0565 37.1637 17.4302 36.2616C17.8038 35.3595 18.4366 34.5885 19.2484 34.046C20.0603 33.5036 21.0147 33.2141 21.9912 33.2141C23.3 33.2155 24.5549 33.7361 25.4804 34.6616C26.4059 35.5871 26.9265 36.842 26.9279 38.1508ZM37.2503 43.0876C36.2739 43.0876 35.3194 42.7981 34.5076 42.2556C33.6957 41.7132 33.063 40.9421 32.6893 40.0401C32.3157 39.138 32.2179 38.1454 32.4084 37.1877C32.5989 36.2301 33.0691 35.3504 33.7595 34.66C34.4499 33.9696 35.3295 33.4994 36.2872 33.3089C37.2448 33.1184 38.2375 33.2162 39.1395 33.5898C40.0416 33.9635 40.8126 34.5963 41.3551 35.4081C41.8976 36.22 42.1871 37.1744 42.1871 38.1508C42.1857 39.4597 41.6651 40.7146 40.7396 41.6401C39.8141 42.5656 38.5592 43.0862 37.2503 43.0876Z" fill="#044472" fill-opacity="0.96"/>
</svg>
